{"title":"Shrek.Forever.After 2010 R5.XviD AC3 LKRG","uid":5963762,"size":861031821,"categoryP":"video","categoryS":"movies","magnet":"?xt=urn:btih:b10d9c5ec37d92c33f7c4f666d5ab8c165bab988&amp;dn=Shrek.Forever.After+2010+R5.XviD+AC3+LKRG&amp;tr=udp%3A%2F%2Ftracker.openbittorrent.com%3A80&amp;tr=udp%3A%2F%2Fopen.demonii.com%3A1337&amp;tr=udp%3A%2F%2Ftracker.coppersurfer.tk%3A6969&amp;tr=udp%3A%2F%2Fexodus.desync.com%3A6969","seeders":0,"leechers":1,"uploader":"deffjam555","files":2,"time":1290041161,"description":"Format;Avi\n\nFile Size:821mb\n\nSource:DVD9 cleared up the video some muxed audio to 5.1 came out real nice\n\nVideo: ID : 0\nFormat : MPEG-4 Visual\nFormat profile : Advanced Simple@L5\nFormat settings, BVOP : Yes\nFormat settings, QPel : No\nFormat settings, GMC : No warppoints\nFormat settings, Matrix : Default (H.263)\nCodec ID : XVID\nCodec ID/Hint : XviD\nDuration : 1h 29mn\nBit rate : 889 Kbps\nWidth : 720 pixels\nHeight : 304 pixels\nDisplay aspect ratio : 2.35:1\nFrame rate : 25.000 fps\nColor space : YUV\nChroma subsampling : 4:2:0\nBit depth : 8 bits\nScan type : Progressive\nBits/(Pixel*Frame) : 0.163\nStream size : 569 MiB (69%)\nWriting library : XviD 1.2.1 (UTC 2008-12-04)\n\nAudio: ID : 1\nFormat : AC-3\nFormat/Info : Audio Coding 3\nMode extension : CM (complete main)\nCodec ID : 2000\nDuration : 1h 29mn\nBit rate mode : Constant\nBit rate : 384 Kbps\nChannel(s) : 6 channels\nChannel positions : Front: L C R, Side: L R, LFE\nSampling rate : 48.0 KHz\nBit depth : 16 bits\nStream size : 245 MiB (30%)\nAlignment : Aligned on interleaves\nInterleave, duration : 32 ms (0.80 video frame)\n\n\nDuration:1:29\n\nRelease Date:2010\n\nLanguage:English\n\nPlot: Rumpelstiltskin tricks a mid-life crisis burdened Shrek into allowing himself to be erased from existence and cast in a dark alternate timeline where Rumpel rules supreme.\n\n\nCast: Mike Myers ...\nShrek (voice)\nEddie Murphy Eddie Murphy ...\nDonkey (voice)\nCameron Diaz Cameron Diaz ...\nPrincess Fiona (voice)\nAntonio Banderas Antonio Banderas ...\nPuss in Boots (voice)\nJulie Andrews Julie Andrews ...\nQueen (voice)\nJon Hamm Jon Hamm ...\nBrogan (voice)\nJohn Cleese John Cleese ...\nKing Harold (voice)\n\n","torrent":{"xt":"urn:btih:b10d9c5ec37d92c33f7c4f666d5ab8c165bab988","amp;dn":"Shrek.Forever.After+2010+R5.XviD+AC3+LKRG","amp;tr":["udp%3A%2F%2Ftracker.openbittorrent.com%3A80","udp%3A%2F%2Fopen.demonii.com%3A1337","udp%3A%2F%2Ftracker.coppersurfer.tk%3A6969","udp%3A%2F%2Fexodus.desync.com%3A6969"],"infoHash":"b10d9c5ec37d92c33f7c4f666d5ab8c165bab988","infoHashBuffer":{"type":"Buffer","data":[177,13,156,94,195,125,146,195,63,124,79,102,109,90,184,193,101,186,185,136]},"announce":[],"urlList":[]}}